<svg xmlns="http://www.w3.org/2000/svg" viewBox="0 0 32 32" width="32" height="32">
  <defs>
    <linearGradient id="grad" x1="0%" y1="0%" x2="100%" y2="100%">
      <stop offset="0%" style="stop-color:#1976d2;stop-opacity:1" />
      <stop offset="100%" style="stop-color:#1565c0;stop-opacity:1" />
    </linearGradient>
  </defs>
  
  <!-- 背景圆形 -->
  <circle cx="16" cy="16" r="15" fill="url(#grad)" stroke="#fff" stroke-width="1"/>
  
  <!-- Worker图标 - 齿轮 -->
  <g transform="translate(16,16)">
    <!-- 外齿轮 -->
    <path d="M-6,-2 L-6,-4 L-4,-6 L-2,-6 L-2,-4 L2,-4 L2,-6 L4,-6 L6,-4 L6,-2 L4,-2 L4,2 L6,2 L6,4 L4,6 L2,6 L2,4 L-2,4 L-2,6 L-4,6 L-6,4 L-6,2 L-4,2 L-4,-2 Z" 
          fill="#fff" opacity="0.9"/>
    
    <!-- 内圆 -->
    <circle cx="0" cy="0" r="3" fill="url(#grad)" stroke="#fff" stroke-width="1"/>
    
    <!-- 中心点 -->
    <circle cx="0" cy="0" r="1" fill="#fff"/>
  </g>
  
  <!-- 数据流动效果 - 小点 -->
  <circle cx="8" cy="8" r="1" fill="#fff" opacity="0.7"/>
  <circle cx="24" cy="8" r="1" fill="#fff" opacity="0.5"/>
  <circle cx="8" cy="24" r="1" fill="#fff" opacity="0.6"/>
  <circle cx="24" cy="24" r="1" fill="#fff" opacity="0.8"/>
</svg>
